<svg width="119" height="15" viewBox="0 0 119 15" fill="none" xmlns="http://www.w3.org/2000/svg">
<path d="M0.4 1.6V-1.19209e-06H4.64V1.6H3.26L6.86 13.18L10.48 1.6H9.1V-1.19209e-06H13.34V1.6H12.32L8.14 15H5.6L1.42 1.6H0.4ZM15.3305 -1.19209e-06H24.8505V3.92H23.2505V1.6H18.5705V6.7H23.2505V8.3H18.5705V13.4H23.2505V11.08H24.8505V15H15.3305V13.4H16.7305V1.6H15.3305V-1.19209e-06ZM28.0453 -1.19209e-06H36.0453L38.1253 2.2V6.6L36.0453 8.8L38.1853 13.4H39.2253V15H35.4653V13.4H36.2453L34.1053 8.8H31.2853V13.4H32.4853V15H28.0453V13.4H29.4453V1.6H28.0453V-1.19209e-06ZM31.2853 1.72V7.08H35.2453L36.4053 5.9V2.9L35.2653 1.72H31.2853ZM42.0297 -1.19209e-06H50.5497L52.6297 2.2V12.8L50.5497 15H42.0297V13.4H43.4297V1.6H42.0297V-1.19209e-06ZM45.2697 13.28H49.7497L50.7897 12.22V2.78L49.7697 1.72H45.2697V13.28ZM55.8383 -1.19209e-06H65.3583V3.92H63.7583V1.6H59.0783V6.7H63.7583V8.3H59.0783V13.4H63.7583V11.08H65.3583V15H55.8383V13.4H57.2383V1.6H55.8383V-1.19209e-06ZM75.5453 -1.19209e-06H79.6253L83.4053 11.12L87.1853 -1.19209e-06H91.2653V1.6H89.8653V13.4H91.2653V15H86.6253V13.4H88.0253V2.66L84.2853 13.4H82.5253L78.7853 2.66V13.4H80.1853V15H75.5453V13.4H76.9453V1.6H75.5453V-1.19209e-06ZM96.7711 -1.19209e-06H102.111V1.6H101.191L104.711 13.4H105.711V15H101.471V13.4H102.871L101.951 10.32H96.9311L96.0111 13.4H97.4111V15H93.1711V13.4H94.1711L97.6911 1.6H96.7711V-1.19209e-06ZM99.4311 1.9L97.4111 8.72H101.471L99.4311 1.9ZM107.616 -1.19209e-06H115.616L117.696 2.2V6.6L115.616 8.8L117.756 13.4H118.796V15H115.036V13.4H115.816L113.676 8.8H110.856V13.4H112.056V15H107.616V13.4H109.016V1.6H107.616V-1.19209e-06ZM110.856 1.72V7.08H114.816L115.976 5.9V2.9L114.836 1.72H110.856Z" fill="black"/>
</svg>
