<svg width="126" height="62" viewBox="0 0 126 62" fill="none" xmlns="http://www.w3.org/2000/svg">
<path d="M32.0643 36.8753C32.0643 41.6886 26.2192 44.1686 26.2192 48.6991C26.2192 49.4488 26.2387 51.8987 26.2192 51.7362C25.9287 49.3147 21.5392 49.7497 19.8394 49.7497C18.1388 49.7497 16.5088 50.0935 14.873 50.0935C12.5169 50.0935 13.4977 46.5824 13.4977 44.7451C13.4977 41.2857 10.169 40.1984 7.82454 38.5753C6.18117 37.4376 4.833 36.2845 4.13797 34.3539C3.62268 32.9226 2.49524 31.1348 2.49524 29.6168C2.49524 28.6732 2.17839 28.6651 1.8458 27.9167C1.55047 27.2522 1.85879 26.1311 1.80759 25.4144C1.75404 24.6647 1.11994 24.2468 1.11994 23.4279C1.11994 22.6638 1.11994 21.8998 1.11994 21.1357C1.11994 19.9682 0.575114 17.0563 1.80759 16.7042C2.66544 16.4591 4.50266 15.0869 4.5582 17.0862C4.61785 19.2336 3.24555 26.212 6.62115 26.6942C10.7245 27.2804 14.3039 26.3439 16.764 30.1707C17.679 31.5941 19.0196 33.269 19.3427 34.9652C19.5536 36.0724 20.0304 36.9002 20.0304 38.0787C20.0304 38.8361 19.8699 39.6182 20.3742 40.1225" stroke="#117E08" stroke-linecap="round"/>
<path d="M34.4746 28.0678C37.011 27.8727 37.3698 25.0994 38.7533 23.4644C39.8193 22.2046 40.5655 20.7727 40.9309 19.1283C41.4781 16.6658 41.6949 14.3822 41.6949 11.8316C41.6949 9.45733 39.4283 7.78208 37.2252 7.78208C34.9649 7.78208 33.6174 6.45409 31.5712 6.08206C30.3109 5.85291 29.4875 4.77895 28.2093 4.68765C26.6705 4.57774 25.4997 4 23.8351 4C21.6096 4 20.3917 4.45891 19.1744 6.08206C18.3972 7.11827 17.3584 8.49415 17.2833 9.84504C17.1981 11.379 15.4025 12.0956 14.208 12.7676C13.0745 13.4052 12.3052 14.5873 11.1709 15.0788C10.0145 15.5799 8.40023 16.8962 8.00001 18.0969" stroke="#117E08" stroke-linecap="round"/>
<path d="M2.15145 16.0547C2.15145 14.4127 2.49399 12.7768 3.37395 11.394C5.06198 8.74136 5.53773 8.14674 8.95156 8.14674C10.4596 8.14674 11.5392 9.30996 12.9629 9.82767C13.632 10.071 14.0993 9.60809 14.5292 9.17822C16.2812 7.42625 19.0789 8.14674 21.4057 8.14674" stroke="#117E08" stroke-linecap="round"/>
<path d="M36.8648 7.00405C36.8648 5.5356 35.2771 5.23867 34.5005 4.25022C33.593 3.09524 32.2286 2.41917 30.9678 1.74675C29.6388 1.03798 28.7848 0.745361 27.296 0.745361C25.9662 0.745361 24.8939 1.46036 23.5964 1.4964C22.2495 1.53382 21.1393 1.73471 19.8273 1.9971C18.3299 2.29658 17.562 3.76957 16.2112 4.12505C15.0418 4.43277 13.4114 4.99055 12.4699 5.69668C11.5348 6.39798 10.9521 7.63516 10.5784 8.75648" stroke="#117E08" stroke-opacity="0.7" stroke-linecap="round"/>
<path d="M3.56866 9.7579C3.56866 8.08571 3.71422 6.74168 5.55754 6.28085C6.39653 6.0711 7.33652 6.01441 7.93583 5.25165C8.5248 4.50205 8.72893 4.1736 9.577 3.74956C11.513 2.78157 12.6709 2.24748 14.9317 2.24748C16.5566 2.24748 18.0258 1.99713 19.5909 1.99713" stroke="#117E08" stroke-opacity="0.7" stroke-linecap="round"/>
<path d="M38.3669 9.00683C36.3795 8.31887 34.7009 8.25579 32.609 8.25579C31.5373 8.25579 30.4053 8.14212 29.3544 8.38096C28.4028 8.59725 28.2093 9.00533 27.4768 9.49362C26.8885 9.88584 26.5106 10.7452 26.0999 11.3156C25.2034 12.5608 23.6279 12.6317 22.2056 12.9568C21.0619 13.2182 20.2079 13.5324 19.2293 14.278C18.2072 15.0568 18.7179 16.4731 17.8246 17.1431C16.0936 18.4413 17.9461 20.973 16.8371 22.5256C15.135 24.9085 17.6564 25.791 17.8385 28.3392C17.9934 30.5079 20.8446 31.9571 21.1069 34.0555C21.2666 35.3335 21.994 36.0094 22.5394 37.0457C22.7918 37.5253 22.791 38.031 22.8454 38.5478C22.893 38.9996 23.5626 39.0304 23.8468 39.2989C24.5835 39.9946 24.731 41.3236 25.4045 41.9971C25.7821 42.3746 26.5962 42.7173 27.1013 43.0541" stroke="#117E08" stroke-opacity="0.7" stroke-linecap="round"/>
<path d="M19.4 21.6V20H23.64V21.6H22.26L25.86 33.18L29.48 21.6H28.1V20H32.34V21.6H31.32L27.14 35H24.6L20.42 21.6H19.4ZM34.3305 20H43.8505V23.92H42.2505V21.6H37.5705V26.7H42.2505V28.3H37.5705V33.4H42.2505V31.08H43.8505V35H34.3305V33.4H35.7305V21.6H34.3305V20ZM47.0453 20H55.0453L57.1253 22.2V26.6L55.0453 28.8L57.1853 33.4H58.2253V35H54.4653V33.4H55.2453L53.1053 28.8H50.2853V33.4H51.4853V35H47.0453V33.4H48.4453V21.6H47.0453V20ZM50.2853 21.72V27.08H54.2453L55.4053 25.9V22.9L54.2653 21.72H50.2853ZM61.0297 20H69.5497L71.6297 22.2V32.8L69.5497 35H61.0297V33.4H62.4297V21.6H61.0297V20ZM64.2697 33.28H68.7497L69.7897 32.22V22.78L68.7697 21.72H64.2697V33.28ZM74.8383 20H84.3583V23.92H82.7583V21.6H78.0783V26.7H82.7583V28.3H78.0783V33.4H82.7583V31.08H84.3583V35H74.8383V33.4H76.2383V21.6H74.8383V20ZM20.6 43H24.68L28.46 54.12L32.24 43H36.32V44.6H34.92V56.4H36.32V58H31.68V56.4H33.08V45.66L29.34 56.4H27.58L23.84 45.66V56.4H25.24V58H20.6V56.4H22V44.6H20.6V43ZM41.8258 43H47.1658V44.6H46.2458L49.7658 56.4H50.7658V58H46.5258V56.4H47.9258L47.0058 53.32H41.9858L41.0658 56.4H42.4658V58H38.2258V56.4H39.2258L42.7458 44.6H41.8258V43ZM44.4858 44.9L42.4658 51.72H46.5258L44.4858 44.9ZM52.6703 43H60.6703L62.7503 45.2V49.6L60.6703 51.8L62.8103 56.4H63.8503V58H60.0903V56.4H60.8703L58.7303 51.8H55.9103V56.4H57.1103V58H52.6703V56.4H54.0703V44.6H52.6703V43ZM55.9103 44.72V50.08H59.8703L61.0303 48.9V45.9L59.8903 44.72H55.9103Z" fill="black"/>
</svg>
